<svg xmlns="http://www.w3.org/2000/svg" version="1.1" xmlns:xlink="http://www.w3.org/1999/xlink" width="512" height="512" x="0" y="0" viewBox="0 0 100 100" style="enable-background:new 0 0 512 512" xml:space="preserve" class=""><g><path d="m44.447 76.424-3.402-4.188a.5.5 0 0 0-.388-.185h-3.57a.498.498 0 0 0-.388.185l-3.402 4.188a4.54 4.54 0 0 0-.112.315v3.375a.5.5 0 0 0 .5.5H44.06a.5.5 0 0 0 .5-.5v-3.375a5.14 5.14 0 0 0-.113-.315zm-7.123-3.372h3.095l2.59 3.188h-8.274zm6.235 6.562h-9.375v-2.375h9.375zM70.856 75.487l-3.037-4.459a.5.5 0 0 0-.371-.217l-3.557-.301a.519.519 0 0 0-.402.151l-3.744 3.886c-.01.011-.137.292-.138.305l-.284 3.362a.5.5 0 0 0 .456.54l10.338.875c.103.008.507-.053.54-.456l.284-3.363a4.655 4.655 0 0 0-.085-.323zm-6.811-3.96 3.082.261 2.312 3.394-8.244-.697zm5.658 7.065-9.342-.791.2-2.366 4.671.396 4.671.395zM59.301 67.678l-2.671-2.064c-.001 0-.302-.104-.318-.104l-5.393.132a.501.501 0 0 0-.383.194l-2.184 2.825a.501.501 0 0 0-.091.42l1.232 5.252c.003.013.171.273.181.281l2.67 2.064a.499.499 0 0 0 .701-.09l6.345-8.209a.498.498 0 0 0-.089-.701zm-8.119-1.043 4.104-.101-5.059 6.547-.938-3.998zm1.379 8.946-1.879-1.453 2.866-3.709 2.866-3.709 1.88 1.453zM84.365 76.424l-3.402-4.188a.5.5 0 0 0-.388-.185h-3.57a.498.498 0 0 0-.388.185l-3.402 4.188a4.54 4.54 0 0 0-.112.315v3.375a.5.5 0 0 0 .5.5h10.375a.5.5 0 0 0 .5-.5v-3.375c0-.012-.105-.305-.113-.315zm-7.122-3.372h3.094l2.59 3.188h-8.273zm6.235 6.562h-9.375v-2.375h9.375z" fill="#ffffff" opacity="1" data-original="#000000"></path><path d="m87.148 35.362-3.133-1.7-.633-7.46a1 1 0 0 0-.655-.856L69.622 20.6l-1.492-1.435a1.002 1.002 0 0 0-.693-.279H51.371a1 1 0 0 0-.797.396l-1.208 1.591-9.776 3.401a1 1 0 0 0-.671.944v12.131c0 .133.026.264.078.387l.714 1.703a1 1 0 0 0 .922.613h3.199c-1.69.932-2.647 3.029-1.785 5.103l-4.093 8.918c-3.082 1.225-2.713 5.714.575 6.37l-.87 5.104-1.652 2.213c-.095.123-.143.439.029.633l1.845 2.053c.076.084.177.14.288.159l2.758.47a.95.95 0 0 0 .324-.055l2.342-1.284c.24-.151.423-.393.276-.757l-.789-2.509.226-1.322.739 2.268c.089.258.403.36.535.341l2.741-.325a.49.49 0 0 0 .295-.144l1.973-1.983c.08-.08.13-.185.143-.296l.311-2.743c.03-.287-.229-.497-.345-.533l-2.631-.842-2.1-2.089a3.07 3.07 0 0 0-.087-1.725l2.776-9.864a4.07 4.07 0 0 0 1.095-.81l7.877-2.105 8.788-.006 5.292 1.818-4.125 7.451c-1.524.693-2.49 2.619-1.633 4.447-.006.021-1.043 6.047-1.043 6.047l-1.65 2.211c-.099.136-.14.443.028.633l1.844 2.053a.5.5 0 0 0 .288.159l2.759.47a.95.95 0 0 0 .324-.055l2.372-1.3a.5.5 0 0 0 .246-.741l-.788-2.507 1.036-6.075a3.277 3.277 0 0 0 .924-2.487l2.424-4.379.664 4.888c-.709 1.345-.411 2.803.491 3.785l-.001.01.886 6.096-.89 2.612c-.064.21.045.492.223.594l2.388 1.385c.077.044.299.065.323.063l2.769-.402a.504.504 0 0 0 .291-.152l1.894-2.008c.191-.204.121-.526.044-.632l-1.597-2.249-.887-6.089c.611-1.24.379-2.633-.467-3.617l-1.378-10.298a4.06 4.06 0 0 0 .652-1.172h4.979a.5.5 0 0 0 .475-.344l2.813-8.548a.503.503 0 0 0-.238-.597zm-5.704-8.354.923 10.877H68.014l1.147-15.326zm-3.408 15.09-4.645 3.764a3.05 3.05 0 0 1-.804-.974l4.656-3.773c.332.27.602.602.793.983zm3.47 26.088-5.432.79.566-1.662 1.924-.28 1.924-.279zm-4.818-1.891-.694-4.776a3.257 3.257 0 0 0 3.463-.502l.695 4.775zm-.194-5.65 3.007-1.376c-.491 1.336-1.894 1.804-3.007 1.376zm-.949-.666a2.304 2.304 0 0 1-.529-1.144l4.077-1.867c.271.318.461.71.529 1.145zm2.61-3.683-3.021 1.384a2.314 2.314 0 0 1 3.021-1.384zm-2.911-.417-1.161-8.532a3.989 3.989 0 0 0 3.484-.503l1.153 8.616a3.26 3.26 0 0 0-3.476.419zm1.045-15.276-4.014 3.252c-.273-2.198 1.816-4.007 4.014-3.252zm2.053 2.535c.236 2.054-1.696 3.993-3.991 3.233zm-6.603 2.27-5.382-1.849 1.716-3.673h5.359c-1.905.992-2.839 3.393-1.693 5.522zM51.867 20.886h15.167l1.164 1.12-1.197 15.99a.993.993 0 0 0-.471.467l-1.792 3.835h-7.795l-.928-1.858a.993.993 0 0 0-.479-.463l-3.978-1.814-.743-15.89zM40.919 37.147V25.929l8.922-3.104.713 15.227h-9.256zm1.873 6.912 4.708 2.059c-1.76 1.163-4.346.296-4.708-2.059zm6.021-.928-4.71-2.059c1.833-1.244 4.356-.183 4.71 2.059zm-5.488-1.308 5.456 2.385c.018.267-.406 1.098-.501 1.158l-5.452-2.383c.098-.475.078-.576.497-1.16zm-1.792 6.849-1.482 5.278a3.317 3.317 0 0 0-.889-.11zm-4.236 19.031 1.051-1.407 3.833.652.527 1.677zm4.861-1.773-3.45-.588.81-4.752a3.297 3.297 0 0 0 3.449.592zm1.628-6.776-4.389-.883a2.184 2.184 0 0 1 .247-1.237l4.394.885c.036.472-.042.819-.252 1.235zm-.756.868a2.32 2.32 0 0 1-3.261-.656zm-3.73-5.187c.161.007.319.048.478.089l-.077.273-.401-.362zm1.108 1.333c1.026-.7 2.532-.498 3.259.656zm-2.305-1.061s.998.875 1.036.895a3.314 3.314 0 0 0-.611 1.179l-1.343-1.202c.382-.645.845-.833.918-.872zm-1.24 1.924 1.549 1.387c.035.357.113.709.261 1.038-1.027-.232-1.888-1.163-1.81-2.425zm4.059 13.029-2.415-.411-.768-.854 4.191.713zm5.755-5.677-1.936 1.945-.544-1.671 2.741-2.757 1.675.536zm2.079.34-1.728 1.737-1.142.135 1.499-1.507 1.5-1.508zm-2.664-3.39-1.233 1.241-1.233 1.24-.079-.078.569-3.337c.17-.178.326-.368.454-.582zm-1.907-5.459a3.27 3.27 0 0 0-3.358-.986l2.312-8.231a4.052 4.052 0 0 0 3.369.944zm3.588-15.822h3.11l3.501 1.597.975 1.953-5.804 1.551c.846-2.033-.058-4.153-1.782-5.101zM69.87 55.25a2.343 2.343 0 0 1-.564 3.264l.55-3.28.014.016zm-6.324 10.959 1.052-1.407 3.832.652.527 1.676zm4.86-1.773-1.725-.294-1.725-.294.81-4.755c.836.738 2.116 1.132 3.449.595zm-.181-5.525c-.381.104-.936-.055-1.262-.215l.744-4.408a2.418 2.418 0 0 1 1.258.213zm-1.602-4.213-.551 3.264c-.938-1.309-.237-2.707.551-3.264zm.548 13.867-2.415-.411-.768-.854 4.191.713zm3.731-13.515c-.576-1.078-1.666-1.812-3.016-1.78l3.781-6.829 1.346.462.474 3.476zm9.347 15.052-2.424.353-.995-.577 4.207-.611zm3.486-26.252h-4.39c.189-2.086-1.231-3.484-2.159-3.964h6.269a1 1 0 0 0 .996-1.084l-.335-3.947 2.188 1.188zM33.6 40.208c.69-.04 1.011-.474.968-1.29l-.857-9.24c-.062-.669-.692-.994-1.2-.887L18.323 31.76a1 1 0 0 0-.727.615l-1.361 3.489H13.09c-.644 0-.644 1 0 1h2.754l-.748 1.917a1.001 1.001 0 0 0 .932 1.364h2.271l.447 1.219c.131.357.453.608.831.65.096.01 3.539.249 3.625.237.405-.054.598-.278.819-.528l1.687-1.516h7.883l.009.001zm-8.26-2c-.236 0-.464.083-.645.235-1.07.902-1.69 1.453-2.049 1.824-.56-.019-1.536-.107-2.239-.177l-.473-1.289a1.001 1.001 0 0 0-.939-.656H17.49l.5-1.281h1.559a2.53 2.53 0 0 0 2.29 1.469c1.396 0 2.531-1.136 2.531-2.531s-1.136-2.531-2.531-2.531c-1.768 0-2.548 1.557-2.525 2.594h-.934l.881-2.257 12.561-2.628.67 7.229H25.34zm-3.313-2.344h-1.712c-.001-.021-.006-.041-.006-.063 0-.844.687-1.531 1.531-1.531s1.531.687 1.531 1.531-.687 1.531-1.531 1.531c-.431 0-.82-.181-1.099-.469h1.286c.652.001.652-.999 0-.999zM35.49 37.177l-.547-5.957c-.064-.679-1.058-.588-.996.092l.547 5.957c.062.672 1.059.597.996-.092zM36.595 37.192l-.364-5.957c-.039-.646-1.038-.585-.998.061l.364 5.957c.04.658 1.039.607.998-.061z" fill="#ffffff" opacity="1" data-original="#000000"></path><path d="m37.7 37.208-.183-5.957c-.02-.648-1.02-.617-1 .03l.183 5.957c.021.673 1.021.648 1-.03zM38.805 37.223v-5.957c0-.649-1-.649-1 0v5.957c0 .659 1 .659 1 0z" fill="#ffffff" opacity="1" data-original="#000000"></path></g></svg>