<svg xmlns="http://www.w3.org/2000/svg" version="1.1" xmlns:xlink="http://www.w3.org/1999/xlink" width="512" height="512" x="0" y="0" viewBox="0 0 100 100" style="enable-background:new 0 0 512 512" xml:space="preserve" class=""><g><path d="m61.27 39.831 3.107-3.046a.985.985 0 0 0 .284-.605l.01.001c.062-.558.093-1.129.093-1.697 0-7.413-5.313-13.603-12.33-14.976v-9.01c0-.677-1-.677-1 0v8.856a15.23 15.23 0 0 0-1.934-.136c-8.417 0-15.266 6.848-15.266 15.265 0 .518.027 1.042.08 1.559l.011-.001a.99.99 0 0 0 .323.65l3.389 2.984C29.246 44.008 23.5 53.048 23.5 62.998c0 14.337 11.664 26 26 26 14.337 0 26-11.663 26-26 0-9.834-5.612-18.777-14.23-23.167zm12.201 24.341-.535-.95c-.237-.421-.787-.332-.916.106l-.915 3.163c-1.688-3.052-2.629-7.074-2.984-9.289l1.986.199c.303.038.568-.274.548-.537l-.172-2.156a.502.502 0 0 0-.242-.39l-2.651-1.58c-.13-2.682.194-4.177.568-4.808 3.372 4.184 5.343 9.47 5.343 15.067-.001.395-.012.786-.03 1.175zM67.485 47.15c-.972 1.224-.986 4.087-.881 5.911.01.165.101.315.243.4l2.659 1.584.104 1.302-2.045-.205c-.285-.035-.601.231-.543.577.326 2.011 1.646 8.138 3.839 11.28.222.316.769.275.891-.147l.896-3.101.164.292-.872 3.742a.5.5 0 0 0 .235.545c.141.082.28.143.418.185a23.922 23.922 0 0 1-1.163 3.214c-1.746.045-4.804-5.138-6.515-13.063-1.594-7.392-1.098-13.831.543-14.579a23.626 23.626 0 0 1 2.027 2.063zM43.594 59.743c4.952 0 10.979 2.46 14.013 8.107 1.667 3.104 1.941 6.472.775 9.484-1.718 4.437-6.35 7.303-11.803 7.303-4.84 0-10.998-2.496-14.011-8.107-4.371-8.137 1.348-16.787 11.026-16.787zm14.893 7.634c-3.344-6.227-10.186-8.634-14.894-8.634-.769 0-1.521.057-2.255.16a49.93 49.93 0 0 1-.709-7.608c8.026-1.823 16.556-6.782 16.33-10.796h.895a23.816 23.816 0 0 1 6.801 3.915c-1.248.915-2.924 5.217-.715 15.463.4 1.855.918 3.713 1.516 5.443a49.6 49.6 0 0 1-6.312 3.47 14.489 14.489 0 0 0-.657-1.413zm2.471-32.318-.5-.002V33.54h.5zM49.5 21.219c7.313 0 13.264 5.951 13.264 13.265 0 .195-.023.388-.032.583l-.773-.003V32.54h-2.5v2.512l-15.448-.07V31.96h-1.332v3.016l-.345-.001V31.96h-5.167v2.991l-.908-.004c-.005-.154-.023-.309-.023-.462-.002-7.316 5.95-13.266 13.264-13.266zm-8.167 13.75-3.167-.014v-1.996h3.167zm19.906 2.091-1.467 1.438H39.725l-1.754-1.544zm-17.338 6.234 2.032 1.98c-2.527 1.188-7.012 2.641-10.478 2.323l1.812-2.378c.236-.309.052-.669-.223-.771l-1.119-.418a.501.501 0 0 0-.53.117l-2.452 2.477c-.287-.327-.18-.578-.114-.856a23.876 23.876 0 0 1 8.317-5.27h10.279c-.037.729-.735 1.683-1.978 2.664l-2.987-1.648a.503.503 0 0 0-.465-.01l-1.969.984a.514.514 0 0 0-.125.806zm-12.014 3.433c.135.388.388.726.757 1.005.199.149.48.129.656-.048l2.577-2.604.185.069-1.919 2.519c-.208.274-.063.721.299.793 3.578.715 9.174-.88 12.573-2.604a.497.497 0 0 0 .123-.804l-2.037-1.985 1.104-.552 3.043 1.68a.5.5 0 0 0 .542-.038c1.698-1.272 2.595-2.543 2.627-3.66h3.534c.235 2.552-4.942 6.445-11.828 8.772-7.077 2.391-13.004 2.221-14.562.416a24.398 24.398 0 0 1 2.326-2.959zm-2.88 3.821c2.133 1.993 7.238 1.623 10.628.955.051 2.542.291 5.082.717 7.571-7.325 1.524-11.607 7.903-9.879 14.776-.954-.295-1.9-.619-2.836-.972a23.84 23.84 0 0 1-2.137-9.881c0-4.485 1.27-8.769 3.507-12.449zM49.5 86.998c-9.197 0-17.198-5.203-21.226-12.817a51.48 51.48 0 0 0 2.549.829c.237.672.513 1.339.864 1.993 3.074 5.724 9.389 8.635 14.892 8.635h.001c5.868 0 10.867-3.117 12.733-7.941.981-2.534 1.023-5.29.169-7.961a50.609 50.609 0 0 0 6.316-3.45c1.465 3.92 3.337 6.968 5.184 7.396-3.937 7.884-12.086 13.316-21.482 13.316z" fill="#ce5229" opacity="1" data-original="#000000"></path><path d="M49.5 31.357c2.646 0 4.799-2.153 4.799-4.8s-2.152-4.8-4.799-4.8-4.801 2.153-4.801 4.8 2.154 4.8 4.801 4.8zm0-7.599c1.543 0 2.799 1.256 2.799 2.8s-1.256 2.8-2.799 2.8c-1.544 0-2.801-1.256-2.801-2.8s1.257-2.8 2.801-2.8z" fill="#ce5229" opacity="1" data-original="#000000"></path><circle cx="56.242" cy="30.684" r="1.775" fill="#ce5229" opacity="1" data-original="#000000"></circle><path d="m33.169 73.831 4.366.767.246 1.256-3.417.451c-.232.031-.604.323-.371.74 2.453 4.375 7.72 6.772 12.37 6.331.206-.021.548-.263.43-.646l-.801-2.578 1.298-.207 1.926 2.421a.502.502 0 0 0 .588.148c4.065-1.742 6.255-5.57 5.574-9.794-.051-.329-.311-.457-.583-.413l-3.265.595-.449-1.113 3.069-1.377c.21-.095.404-.376.234-.693-2.652-5.205-8.135-6.766-11.505-6.766h-.015c-.355.016-.496.313-.474.546l.349 3.675-1.139.203-1.393-3.649a.5.5 0 0 0-.608-.301c-5.457 1.602-7.326 6.372-6.839 9.979.03.215.195.388.409.425zm6.273-9.306 1.372 3.594c.086.225.32.354.555.313l2-.356a.5.5 0 0 0 .41-.539l-.339-3.577c3.13.128 7.489 1.719 9.81 5.76l-3.016 1.354a.5.5 0 0 0-.259.643l.781 1.938a.505.505 0 0 0 .554.306l3.148-.574c.314 3.135-1.145 6.361-4.701 8.053l-1.865-2.345a.508.508 0 0 0-.47-.183l-2.156.344c-.358.059-.466.425-.399.643l.783 2.525c-3.833.158-8.017-1.623-10.394-5.226l3.185-.421c.323-.044.485-.283.425-.593l-.415-2.115a.502.502 0 0 0-.404-.396l-4.337-.761c-.311-3.438 1.537-6.943 5.732-8.387z" fill="#ce5229" opacity="1" data-original="#000000"></path><circle cx="47.583" cy="53.582" r=".916" fill="#ce5229" opacity="1" data-original="#000000"></circle><circle cx="58.871" cy="47.065" r=".917" fill="#ce5229" opacity="1" data-original="#000000"></circle><circle cx="60.166" cy="61.082" r=".916" fill="#ce5229" opacity="1" data-original="#000000"></circle><circle cx="64.322" cy="73.814" r=".917" fill="#ce5229" opacity="1" data-original="#000000"></circle><circle cx="58.871" cy="83.847" r=".917" fill="#ce5229" opacity="1" data-original="#000000"></circle><circle cx="34.094" cy="56.749" r=".917" fill="#ce5229" opacity="1" data-original="#000000"></circle><circle cx="27.788" cy="67.502" r=".917" fill="#ce5229" opacity="1" data-original="#000000"></circle></g></svg>