<svg xmlns="http://www.w3.org/2000/svg" version="1.1" xmlns:xlink="http://www.w3.org/1999/xlink" width="512" height="512" x="0" y="0" viewBox="0 0 100 100" style="enable-background:new 0 0 512 512" xml:space="preserve" class=""><g><path d="M77.563 44.465a1 1 0 0 0-1-.973h-.553c-.577-11.808-11.313-21.253-24.432-21.253-13.118 0-23.854 9.445-24.431 21.253H25.75V17.635H26c.156 0 .311-.037.45-.107.032-.016 3.235-1.594 7.95-1.594a1 1 0 0 0 1-1v-2.25a1 1 0 0 0-1-1H23.9a1 1 0 0 0-1 1v3.951c0 .5.373.895.851.97v25.97a.998.998 0 0 0-.607.891l-.485 18.274c-.02.714.653 1.026 1 1.026h1.417l-.331 12.296c-.01.361.176.699.485.885l18.737 11.226c.146.086.217.143.514.143h14.12c.119 0 .487-.126.513-.142l18.812-11.226a.997.997 0 0 0 .487-.886zm-19.96 41.85h-.554V54.994l15.284-1.96a1 1 0 0 0 .873-.992v-3.558a1 1 0 0 0-1-1H30.95a1 1 0 0 0-1 1v3.558a1 1 0 0 0 .873.992l15.285 1.96v31.321h-.638c-.025-8.95-.699-31.561-18.116-32.862l.214-7.961h48.021l.214 7.956c-17.498 1.235-18.175 23.903-18.2 32.867zm-6.025-62.076c12.013 0 21.852 8.548 22.432 19.253H29.147c.581-10.704 10.419-19.253 22.431-19.253zM24.899 13.684h8.5v.271c-4.003.17-6.822 1.316-7.624 1.68h-.876zm-.214 48.083.431-16.274h.45l-.228 8.47a.988.988 0 0 0-.021.796l-.188 7.008zm2.615-6.329c10.706.826 15.867 10.446 16.156 30.098l-1.1-.659c-.177-12.29-3.946-18.927-7.507-18.927-2.389 0-4.929 3.014-5.201 11.313l-2.889-1.73zm14.045 28.833-10.709-6.416c.152-7.515 2.189-10.905 4.213-10.905 2.526-.001 6.204 5.528 6.496 17.321zm6.762 2.044V54.114a1 1 0 0 0-.873-.992l-15.285-1.96v-1.678h39.256v1.678l-15.284 1.96a1 1 0 0 0-.873.992v32.201zm13.621-2.029c.289-11.804 3.969-17.337 6.495-17.337 2.028 0 4.067 3.403 4.213 10.946zm11.696-6.98c-.265-8.332-2.809-11.356-5.201-11.356-3.563 0-7.332 6.642-7.507 18.94l-1.1.656c.288-19.709 5.477-29.33 16.24-30.113l.541 20.099z" fill="#ffffff" opacity="1" data-original="#000000" class=""></path></g></svg>