<svg xmlns="http://www.w3.org/2000/svg" version="1.1" xmlns:xlink="http://www.w3.org/1999/xlink" width="512" height="512" x="0" y="0" viewBox="0 0 100 100" style="enable-background:new 0 0 512 512" xml:space="preserve" class=""><g><path d="M60.537 60.135c4.099 0 7.434-3.335 7.434-7.434 0-4.1-3.335-7.435-7.434-7.435-4.1 0-7.435 3.335-7.435 7.435.001 4.099 3.336 7.434 7.435 7.434zm3.011-2.914a5.399 5.399 0 0 1-2.514.889v-3.414a1.993 1.993 0 0 0 1.494-1.926c0-.928-.636-1.7-1.494-1.925v-3.553a5.392 5.392 0 0 1 2.514.889zm-3.514-6.377a1.992 1.992 0 0 0-1.499 1.926c0 .931.639 1.705 1.499 1.927v3.413a5.39 5.39 0 0 1-2.515-.893v-9.032a5.407 5.407 0 0 1 2.515-.893zm5.937 1.857a5.405 5.405 0 0 1-1.423 3.653v-7.307a5.41 5.41 0 0 1 1.423 3.654zm-9.451-3.647v7.293c-.877-.966-1.417-2.242-1.417-3.646s.54-2.681 1.417-3.647zM39.453 60.135c4.099 0 7.434-3.335 7.434-7.434 0-4.1-3.334-7.435-7.434-7.435s-7.434 3.335-7.434 7.435c0 4.099 3.335 7.434 7.434 7.434zm3.014-2.916c-.732.49-1.59.806-2.514.891v-3.484a1.992 1.992 0 0 0 1.494-1.924c0-.929-.636-1.701-1.494-1.926v-3.483c.924.085 1.781.4 2.514.891zm-3.514-6.445c-.861.222-1.5.996-1.5 1.927 0 .929.639 1.704 1.5 1.926v3.482a5.39 5.39 0 0 1-2.514-.891v-9.036a5.401 5.401 0 0 1 2.514-.891zm5.934 1.927a5.404 5.404 0 0 1-1.42 3.649v-7.3a5.41 5.41 0 0 1 1.42 3.651zm-9.448-3.65v7.3a5.406 5.406 0 0 1-1.42-3.649c0-1.407.541-2.685 1.42-3.651zM45.888 67.991l4.106-3.877 4.107 3.877c1.001.895 2.332-.548 1.373-1.455l-4.794-4.524a1.002 1.002 0 0 0-1.373 0l-4.793 4.524c-.933.884.438 2.334 1.374 1.455z" fill="#f8ba07" opacity="1" data-original="#000000" class=""></path><circle cx="50.005" cy="14.896" r="1.372" fill="#f8ba07" opacity="1" data-original="#000000" class=""></circle><path d="m82.029 48.936-2.036-.976c.104-.963.214-2.428.214-3.853 0-14.219-10.086-26.654-23.978-29.566-.948-.204-1.773-.828-2.202-1.661a4.49 4.49 0 0 0-4.017-2.491l-.005-.001h-.01l-.005.001a4.482 4.482 0 0 0-4.012 2.48 3.267 3.267 0 0 1-2.203 1.67c-13.896 2.913-23.982 15.348-23.982 29.567 0 1.426.109 2.891.213 3.853l-2.035.976a1 1 0 0 0-.556 1.058l1.961 12.422c.063.4.362.724.757.816l2.047.485a73.938 73.938 0 0 0 1.205 3.923.999.999 0 0 0-.617.923v9.587a1 1 0 0 0 1 1h2.754a1 1 0 0 0 1-1V76.47h4.596c4.665 6.593 10.872 10.501 17.875 10.501s13.21-3.908 17.875-10.501h4.606v1.681a1 1 0 0 0 1 1h2.754a1 1 0 0 0 1-1v-9.587a1 1 0 0 0-.617-.923c.341-1.016.818-2.5 1.205-3.923l2.047-.485a.998.998 0 0 0 .757-.816l1.962-12.422a.996.996 0 0 0-.553-1.059zM25.523 77.15h-.754v-7.587h.754zm2-2.68v-2.3h1.973c.417.793.85 1.562 1.303 2.3zm-2.227-30.363c0-13.619 11.08-24.698 24.699-24.698s24.699 11.08 24.699 24.698c0 1.172-.035 2.315-.087 3.443h-3.953c-1.878-3.786-5.778-6.197-10.118-6.197a11.257 11.257 0 0 0-8.189 3.492c-1.245 1.329-3.46 1.325-4.7.015-2.167-2.261-5.076-3.507-8.192-3.507a11.352 11.352 0 0 0-10.111 6.197h-3.96a73.081 73.081 0 0 1-.088-3.443zm4.679 5.444c.397 0 .756-.235.916-.598a9.353 9.353 0 0 1 8.563-5.599 9.265 9.265 0 0 1 6.744 2.886 5.25 5.25 0 0 0 3.797 1.635 5.17 5.17 0 0 0 3.801-1.652 9.268 9.268 0 0 1 6.739-2.869c3.821 0 7.1 2.141 8.557 5.586a1 1 0 0 0 .921.611h4.477c-.703 9.555-3.232 17.432-6.788 23.307H55.788v-2.054a1 1 0 0 0-1-1h-9.586a1 1 0 0 0-1 1v2.054H32.288C29.88 68.88 26.4 61.782 25.5 49.551zm23.813 22.253v3.032h-7.586v-3.032zm-3.793 13.167c-6.147 0-12.398-3.925-17.075-11.113h11.282v1.979a1 1 0 0 0 1 1h9.586a1 1 0 0 0 1-1v-1.979h11.281c-4.676 7.188-10.927 11.113-17.074 11.113zM69.19 74.47c.452-.738.886-1.507 1.303-2.3h1.983v2.3zm6.04 2.68h-.754v-7.587h.754zm3.522-15.709-1.979.469a.998.998 0 0 0-.738.726c-.457 1.793-1.15 3.885-1.508 4.928h-1.051a1 1 0 0 0-1 1v1.606h-.99c3.295-7.126 5.207-16.093 5.207-26.063 0-14.722-11.977-26.698-26.699-26.698S23.295 29.386 23.295 44.107c0 9.97 1.912 18.937 5.207 26.063h-.979v-1.606a1 1 0 0 0-1-1h-1.052c-.356-1.044-1.049-3.135-1.507-4.928a1 1 0 0 0-.738-.726l-1.978-.469-1.741-11.024 2.013-.965c.396-.19.623-.617.557-1.052-.11-.725-.284-2.531-.284-4.293 0-13.278 9.417-24.89 22.397-27.611a5.225 5.225 0 0 0 3.571-2.72 2.502 2.502 0 0 1 4.483.01 5.22 5.22 0 0 0 3.57 2.711c12.975 2.72 22.393 14.332 22.393 27.61 0 1.761-.175 3.568-.284 4.293a1 1 0 0 0 .556 1.052l2.015.965z" fill="#f8ba07" opacity="1" data-original="#000000" class=""></path></g></svg>