<svg xmlns="http://www.w3.org/2000/svg" version="1.1" xmlns:xlink="http://www.w3.org/1999/xlink" width="512" height="512" x="0" y="0" viewBox="0 0 492 492" style="enable-background:new 0 0 512 512" xml:space="preserve" class=""><g><path fill="#2c8ed3" fill-rule="evenodd" d="M238.148 416.311c-8.304 0-16.56-.792-24.744-2.376a130.088 130.088 0 0 1-40.272-15.096c-29.088-16.8-50.328-43.776-59.808-75.96-9.456-32.064-6.336-66.12 8.784-95.832 1.44-2.832 4.92-3.96 7.752-2.52s3.96 4.92 2.52 7.752c-28.608 56.232-8.16 125.016 46.536 156.6 45.6 26.328 103.872 19.224 141.768-17.256 2.28-2.208 5.928-2.136 8.136.144s2.136 5.928-.144 8.136c-10.056 9.696-21.6 17.664-34.272 23.712a130.386 130.386 0 0 1-39.48 11.64 135.524 135.524 0 0 1-16.776 1.056zm111.288-97.031c3.168 0 5.76-2.568 5.736-5.76v-83.712c0-.888-.216-1.776-.624-2.592-11.424-22.632-29.112-41.328-51.144-54.048-37.872-21.888-83.928-23.304-123.168-3.84a5.779 5.779 0 0 0-2.592 7.728 5.779 5.779 0 0 0 7.728 2.592c35.784-17.76 77.76-16.464 112.296 3.48 19.704 11.376 35.592 27.984 46.008 48.072v82.319a5.746 5.746 0 0 0 5.76 5.761z" clip-rule="evenodd" opacity="1" data-original="#212121" class=""></path><path fill="#2c8ed3" fill-rule="evenodd" d="M298.34 289.304c-1.752 0-3.504-.168-5.28-.48-7.584-1.416-17.928-4.272-20.088-12.72-2.664-10.512 9.48-20.376 22.344-30.816l1.344-1.08c2.064-1.68 3.12-2.76 3.624-3.36-.552-.672-1.464-1.584-2.232-2.352-4.488-4.536-11.976-12.144-16.2-27.936-2.496-9.336-1.8-23.304 15.72-36.672 2.52-1.92 6.144-1.44 8.064 1.08s1.44 6.144-1.08 8.064c-10.128 7.728-13.92 15.768-11.592 24.528 3.432 12.84 9.12 18.624 13.272 22.824 3.168 3.216 6.144 6.24 5.904 10.92-.24 4.488-3.48 7.968-8.232 11.832l-1.344 1.08c-5.136 4.152-10.44 8.472-14.136 12.432-4.44 4.728-4.296 6.576-4.296 6.6s1.248 2.4 11.016 4.224c5.664 1.056 11.832-.72 19.416-5.616 7.416-4.776 14.88-11.688 22.776-18.984 2.688-2.496 5.472-5.064 8.256-7.536 2.376-2.112 6.024-1.92 8.136.456s1.92 6.024-.456 8.136a590.146 590.146 0 0 0-8.088 7.392c-14.88 13.8-30.216 27.984-46.848 27.984zM294.116 403.088a5.602 5.602 0 0 1-2.376-.528c-8.16-3.696-13.944-6.672-17.688-9.048-8.112-5.16-15.408-4.104-26.472-2.496-6.024.864-12.864 1.872-20.88 1.872-5.928 0-10.776-1.056-14.424-3.096-4.08-2.304-6.576-5.832-7.008-9.96-.888-8.232 6.528-15.96 17.64-18.408 1.704-.384 3.408-.72 5.064-1.032 6.264-1.248 14.064-2.784 15.288-5.664.36-.84 1.08-4.368-4.968-13.92-6.792-10.728-4.92-17.808-2.184-21.888 3.576-5.28 10.656-8.472 21.048-9.48 7.128-.696 14.544-.24 18.432.504 7.848 1.464 31.704 5.952 55.056-2.808 5.784-2.16 12.192-3.048 19.104-2.616a5.739 5.739 0 0 1 5.376 6.12 5.739 5.739 0 0 1-6.12 5.376c-5.28-.336-10.104.312-14.352 1.896-11.208 4.2-23.808 6.216-37.368 5.952-11.04-.216-20.016-1.896-23.856-2.616-2.496-.48-8.832-.984-15.192-.36-6.432.624-11.16 2.304-12.648 4.488-1.56 2.304.816 6.792 2.376 9.264 6.672 10.536 8.496 18.36 5.808 24.648-3.624 8.448-13.8 10.464-23.64 12.408-1.608.312-3.264.648-4.848.984-6.384 1.392-8.784 4.8-8.664 5.904.072.72 2.688 2.76 10.008 2.76 7.176 0 13.296-.888 19.224-1.752 11.616-1.68 22.584-3.264 34.296 4.2 3.24 2.064 8.712 4.848 16.272 8.28a5.752 5.752 0 0 1 2.856 7.632c-.888 2.112-2.976 3.384-5.16 3.384zM191.972 306.584c-1.896 0-3.816-.192-5.736-.6-6.312-1.32-12.048-4.8-16.152-9.768-.528-.648-4.032-3.936-20.04-4.536-9.432-.36-21.432.24-35.64 1.8a5.785 5.785 0 0 1-6.36-5.112 5.785 5.785 0 0 1 5.112-6.36c14.76-1.608 27.336-2.232 37.344-1.848 14.976.576 24.024 3.336 28.464 8.712 5.304 6.408 13.944 7.512 18.888 4.824 3.672-1.968 4.752-5.568 3.192-10.704-1.512-4.968-2.568-10.104-.024-14.16 2.424-3.864 6.648-4.512 10.032-5.04 4.632-.72 9.888-1.536 14.928-9.12 5.784-8.664 11.232-16.872 12.792-23.352 1.008-4.176 1.032-9.048-5.52-16.2-7.272-7.944-10.224-13.68-9.912-19.248.336-5.76 4.2-9.456 7.608-12.744.432-.408.888-.84 1.32-1.272.168-.336 1.752-4.008-3.36-18.456-1.056-3 .504-6.288 3.504-7.344s6.288.504 7.344 3.504c5.616 15.96 5.808 25.344.624 30.456-.504.504-1.008.96-1.488 1.44-2.16 2.064-4.008 3.84-4.08 5.064-.048.912.528 3.816 6.912 10.8 7.896 8.616 10.512 17.088 8.232 26.64-2.016 8.472-7.752 17.088-14.4 27.048-7.848 11.808-17.184 13.248-22.752 14.112-.552.096-1.2.192-1.752.288.096.792.36 2.112.984 4.152 3.144 10.32-.192 19.608-8.736 24.192-3.384 1.92-7.272 2.832-11.328 2.832z" clip-rule="evenodd" opacity="1" data-original="#212121" class=""></path><path fill="#2c8ed3" fill-rule="evenodd" d="M373.364 416.311c-15.288 0-29.664-5.952-40.464-16.752s-16.752-25.176-16.752-40.464c0-20.136 10.464-38.568 27.528-48.912V187.472c0-16.368 13.32-29.688 29.688-29.688s29.688 13.32 29.688 29.688V310.16c17.064 10.344 27.528 28.8 27.528 48.912 0 15.288-5.952 29.664-16.752 40.464-10.824 10.824-25.176 16.775-40.464 16.775zm0-247.007c-10.008 0-18.168 8.16-18.168 18.168V313.52a5.724 5.724 0 0 1-3.072 5.088c-15.072 7.944-24.456 23.448-24.456 40.464 0 25.2 20.496 45.696 45.696 45.696s45.696-20.496 45.696-45.696c0-17.016-9.36-32.52-24.456-40.464a5.751 5.751 0 0 1-3.072-5.088V187.472c0-10.008-8.16-18.168-18.168-18.168z" clip-rule="evenodd" opacity="1" data-original="#212121" class=""></path><path fill="#2c8ed3" fill-rule="evenodd" d="M373.364 394.304c-19.416 0-35.232-15.792-35.232-35.232s15.792-35.232 35.232-35.232 35.232 15.792 35.232 35.232-15.816 35.232-35.232 35.232zm0-58.92c-13.08 0-23.712 10.632-23.712 23.712s10.632 23.712 23.712 23.712 23.712-10.632 23.712-23.712-10.656-23.712-23.712-23.712z" clip-rule="evenodd" opacity="1" data-original="#212121" class=""></path><path fill="#2c8ed3" fill-rule="evenodd" d="M373.364 335.384a5.746 5.746 0 0 1-5.76-5.76V206c0-3.192 2.568-5.76 5.76-5.76s5.76 2.568 5.76 5.76v123.624a5.761 5.761 0 0 1-5.76 5.76zM417.092 222.032h-19.8c-3.192 0-5.76-2.568-5.76-5.76s2.568-5.76 5.76-5.76h19.8c3.192 0 5.76 2.568 5.76 5.76s-2.568 5.76-5.76 5.76zM417.092 251.864h-19.8c-3.192 0-5.76-2.568-5.76-5.76s2.568-5.76 5.76-5.76h19.8c3.192 0 5.76 2.568 5.76 5.76s-2.568 5.76-5.76 5.76zM417.092 281.72h-19.8c-3.192 0-5.76-2.568-5.76-5.76s2.568-5.76 5.76-5.76h19.8c3.192 0 5.76 2.568 5.76 5.76s-2.568 5.76-5.76 5.76zM170.492 235.4H96.644c-19.152 0-34.704-15.576-34.704-34.704 0-19.152 15.576-34.704 34.704-34.704.984 0 1.944.048 2.928.12 1.368-6.624 4.656-12.72 9.576-17.592 6.552-6.48 15.216-10.032 24.408-10.032s17.88 3.552 24.408 10.032c4.92 4.872 8.208 10.968 9.576 17.592.96-.072 1.944-.12 2.928-.12 19.152 0 34.704 15.576 34.704 34.704.024 19.128-15.552 34.704-34.68 34.704zm-73.848-57.912c-12.792 0-23.184 10.416-23.184 23.184 0 12.792 10.416 23.184 23.184 23.184h73.824c12.792 0 23.184-10.416 23.184-23.184 0-12.792-10.416-23.184-23.184-23.184-2.16 0-4.32.288-6.384.888-1.728.504-3.576.144-5.016-.912a5.798 5.798 0 0 1-2.328-4.56c-.144-12.648-10.536-22.92-23.184-22.92s-23.04 10.272-23.184 22.92c-.024 1.8-.888 3.48-2.328 4.56s-3.288 1.416-5.016.912a23.7 23.7 0 0 0-6.384-.888zM228.02 150.056h-53.064c-14.64 0-26.568-11.928-26.568-26.568s11.928-26.568 26.568-26.568c.288 0 .552 0 .84.024a26.435 26.435 0 0 1 7.008-12.096c5.016-4.944 11.64-7.68 18.696-7.68s13.68 2.736 18.696 7.68a26.435 26.435 0 0 1 7.008 12.096c.288 0 .552-.024.84-.024 14.64 0 26.568 11.928 26.568 26.568-.024 14.64-11.928 26.568-26.592 26.568zm-53.064-41.616c-8.304 0-15.048 6.744-15.048 15.048s6.744 15.048 15.048 15.048h53.064c8.304 0 15.048-6.744 15.048-15.048s-6.744-15.048-15.048-15.048c-1.416 0-2.808.192-4.152.576-1.728.504-3.576.144-5.016-.912a5.798 5.798 0 0 1-2.328-4.56c-.096-8.208-6.84-14.88-15.048-14.88s-14.952 6.672-15.048 14.88c-.024 1.8-.888 3.48-2.328 4.56s-3.288 1.416-5.016.912a14.786 14.786 0 0 0-4.128-.576z" clip-rule="evenodd" opacity="1" data-original="#212121" class=""></path></g></svg>