<svg xmlns="http://www.w3.org/2000/svg" version="1.1" xmlns:xlink="http://www.w3.org/1999/xlink" width="512" height="512" x="0" y="0" viewBox="0 0 100 100" style="enable-background:new 0 0 512 512" xml:space="preserve" class=""><g><path d="M46.438 69.059v11.3c0 .649 1 .649 1 0v-11.3c0-.669-1-.669-1 0zM48.267 69.066v11.3c0 .649 1 .649 1 0v-11.3c0-.669-1-.669-1 0zM50.732 69.059v11.3c0 .649 1 .649 1 0v-11.3c0-.669-1-.669-1 0zM52.562 69.059v11.3c0 .649 1 .649 1 0v-11.3c0-.669-1-.669-1 0zM42.131 38.188c.002-.018.011-.033.012-.052l.588-21.715c.015-.57-.859-.683-.987-.126l-.93 4.042a.489.489 0 0 0 .01.26l.729 2.362-.408 15.063c-2.532-.377-5.196-.442-5.773.135-1.155 1.155-1.315 7.091 1.155 8.406s9.728-4.68 9.601-6.798c-.036-.584-1.857-1.183-3.997-1.577zm-3.504 2.332c-.195-.999 5.063-.387 4.938.906-.124 1.292-4.547 1.094-4.938-.906z" fill="#d31d11" opacity="1" data-original="#000000"></path><path d="M78.018 33.103c-.623-1.501-7.599-9.38-7.766-10.03-.351-1.379-.37-6.283-.348-8.056a1 1 0 0 0-.929-1.01 1.012 1.012 0 0 0-1.063.868l-2.019 15.384a83.004 83.004 0 0 0-.98-2.428c-1.271-2.867-1.458-6.313-1.595-8.83-.089-1.634-.147-2.713-.47-3.365C61.655 13.228 54.683 9.674 50 9.674s-11.656 3.554-12.849 5.962c-.323.652-.382 1.732-.471 3.366-.136 2.517-.323 5.963-1.594 8.829a75.678 75.678 0 0 0-.981 2.431l-2.02-15.387a1 1 0 0 0-1.991.143c.022 1.773.004 6.676-.347 8.055-.167.651-7.143 8.53-7.765 10.032-.741 1.788.355 15.736 1.744 17.433 5.304 6.483 9.598 16.897 14.415 30.541a1 1 0 0 0 .942.667h.021a1 1 0 0 0 .947-1.323l-3.422-26.552c.223.123 2.662 1.444 2.863 1.709.936 1.587 2.216 12.494 2.167 16.944l-.4.589a1.008 1.008 0 0 0-.173.555c-.034 4.597.007 12.495.667 13.747.498.94 2.265 2.313 2.795 2.712.735.548 1.89-.146 1.545-1.13-.302-.862-.451-2.556-.516-4.65 2.704-1.533 6.141-1.533 8.846 0-.064 2.094-.213 3.788-.515 4.65-.364 1.039.834 1.66 1.544 1.13.53-.398 2.299-1.772 2.794-2.713.659-1.251.7-9.149.666-13.746a1.005 1.005 0 0 0-.173-.554l-.397-.586c-.052-4.445 1.228-15.358 2.154-16.933.211-.279 2.65-1.602 2.875-1.725l-3.447 26.747a1 1 0 0 0 1.935.461c4.816-13.644 9.111-24.058 14.415-30.541 1.388-1.698 2.485-15.645 1.744-17.434zm-4.619 10.574 2.261.606a58.38 58.38 0 0 1-.433 3.029l-2.793-.983c.394-.792.72-1.678.965-2.652zm.208-.98c.096-.541.218-1.531.213-2.325l2.195.427c-.071.828-.152 1.666-.241 2.479zM68.68 24.404c.582 1.007 6.996 8.274 7.486 9.455.218.642.146 3.133-.068 5.938l-2.327-.453a10.498 10.498 0 0 0-.415-2.073l2.521-.663a.498.498 0 0 0 .356-.61.501.501 0 0 0-.61-.356l-2.61.686c-1.325-3.166-3.921-5.029-5.142-5.761zm3.077 17.233c-.39 3.247-1.879 5.646-3.955 7.372 2.196-9.561-.404-14.739-1.191-16.865 1.114.606 5.859 3.558 5.146 9.493zM32.19 48.975c-1.815-1.52-3.507-3.671-3.948-7.338-.72-6 4.032-8.902 5.149-9.497-1.286 3.473-3.211 8.011-1.201 16.835zm-8.205-8.176 2.195-.427c-.004.865.075 1.545.212 2.325l-2.164.581c-.089-.814-.171-1.652-.243-2.479zm.359 3.482 2.257-.605c.245.975.571 1.86.964 2.653l-2.785.981c-.15-.85-.299-1.893-.436-3.029zm-.514-10.412c.494-1.192 6.907-8.458 7.489-9.465l.809 6.163c-1.221.732-3.816 2.595-5.141 5.761l-2.61-.686a.5.5 0 0 0-.254.966l2.522.663a10.487 10.487 0 0 0-.416 2.072l-2.327.453c-.215-2.803-.288-5.29-.072-5.927zm1.466 15.432c-.102-.167-.21-.517-.32-1l3.076-1.083c2.021 3.364 5.096 4.932 6.409 5.473l2.486 19.296c-3.728-9.766-7.354-17.437-11.651-22.686zm18.24 37.21c-.329-.857-.486-6.982-.452-12.526l.545-.802c-.035 2.446-.159 10.783.073 13.55a1.388 1.388 0 0 1-.166-.222zm12.941-.032a1.485 1.485 0 0 1-.178.242c.2-2.397.101-11.513.072-13.537l.543.8c.034 5.543-.123 11.668-.437 12.495zm5.267-34.001c-1.626.881-2.564 1.412-2.961 2.085-1.117 1.896-2.059 10.078-2.35 15.155l-.263-.387c-.604-.889-1.827-.263-1.827.562 0 1.688.03 3.555.061 5.45.036 2.251.072 4.622.058 6.774a11.219 11.219 0 0 0-8.924-.001c-.015-2.151.022-4.522.058-6.773.03-1.896.06-3.762.06-5.45 0-1.043-1.323-1.301-1.827-.563l-.264.389c-.292-5.079-1.233-13.263-2.35-15.155-.396-.674-1.335-1.205-2.962-2.087-1.374-.744-3.449-1.869-3.762-2.677-.491-1.271-1.699-7.523-.791-12.088.44-2.212 2.783-8.101 3.214-9.071 1.42-3.202 1.618-6.86 1.763-9.532.056-1.021.125-2.292.266-2.586.736-1.484 6.838-4.85 11.057-4.85s10.321 3.366 11.057 4.85c.142.294.211 1.565.266 2.586.146 2.671.344 6.33 1.764 9.531.433.977 2.78 6.89 3.215 9.071.908 4.572-.302 10.818-.794 12.087-.315.81-2.39 1.935-3.764 2.68zm1.309 19.508L65.54 52.69c1.313-.541 4.386-2.108 6.407-5.473l3.086 1.087c-.106.468-.21.804-.308.965-4.314 5.275-7.943 12.95-11.672 22.717z" fill="#d31d11" opacity="1" data-original="#000000"></path><path d="M64.627 38.157c-.576-.577-3.24-.512-5.771-.135l-.409-15.06.73-2.366a.51.51 0 0 0 .01-.26l-.932-4.042a.498.498 0 0 0-.987.126l.59 21.715c.001.019.01.034.012.051-2.141.395-3.962.994-3.998 1.579-.127 2.118 7.131 8.113 9.602 6.798s2.307-7.25 1.153-8.406zm-8.192 3.269c-.126-1.293 5.132-1.905 4.938-.906-.392 2-4.816 2.198-4.938.906z" fill="#d31d11" opacity="1" data-original="#000000"></path></g></svg>