<svg xmlns="http://www.w3.org/2000/svg" version="1.1" xmlns:xlink="http://www.w3.org/1999/xlink" width="512" height="512" x="0" y="0" viewBox="0 0 100 100" style="enable-background:new 0 0 512 512" xml:space="preserve" class=""><g><path d="m79.195 48.16-2.412-.658 1.654-.414a.5.5 0 0 0 .379-.485v-5.418a.5.5 0 0 0-.379-.485l-1.654-.414 2.408-.657a.993.993 0 0 0 .726-1.144c-1.176-6.493-4.529-12.481-9.438-16.935V18.6a1 1 0 0 0-.393-.861c-11.801-8.968-28.082-8.837-39.705.003a.998.998 0 0 0-.395.796v3.016c-4.909 4.453-8.26 10.439-9.435 16.931-.119.66.426 1.063.725 1.144l2.408.657-1.654.414a.5.5 0 0 0-.379.485v5.418a.5.5 0 0 0 .379.485l1.654.414-2.41.658c-.517.14-.805.684-.722 1.142a29.963 29.963 0 0 0 2.158 6.914l-2.056.935a1 1 0 0 0-.586.91v7.668c0 .108.018.217.052.319l1.701 5.051c.137.406.519.681.948.681h3.597a1 1 0 0 0 .948-.681l1.701-5.051a.992.992 0 0 0 .052-.319v-.311l12.542 23c.23.422.549.518.911.518h3.215a1 1 0 0 0 1-1v-8.874h7v8.874a1 1 0 0 0 1 1h3.25a.986.986 0 0 0 .876-.521l12.577-23.063a30.076 30.076 0 0 0 8.46-15.94c.024-.128.099-1.032-.703-1.252zM57.389 86.936h-1.654V73.539c4.23-.78 8.15-2.432 11.565-4.776zm-14.311 0-9.936-18.222c3.408 2.4 7.357 4.061 11.593 4.841v13.381zM27.65 41.061h14.58a8.599 8.599 0 0 0 0 5.668H27.65zm17.084 10.734v19.702c-6.104-1.207-11.549-4.358-15.43-9zm-1-7.9c0-3.584 2.916-6.5 6.5-6.5s6.5 2.916 6.5 6.5-2.916 6.5-6.5 6.5-6.5-2.916-6.5-6.5zm29.082 2.834H58.238a8.341 8.341 0 0 0 0-5.668h14.578zm-2.797 17.215-.011.011a28.084 28.084 0 0 1-14.273 7.548v-21.14a8.5 8.5 0 0 0 1.482-1.635h16.465l4.07 1.111a28.084 28.084 0 0 1-7.733 14.105zm7.797-17.731-3 .75v-6.137l3 .75zm-.069-8.262-4.065 1.11H57.217a8.57 8.57 0 0 0-1.636-1.765l13.917-13.917a28.233 28.233 0 0 1 8.249 14.572zm-9.268-18.915v2.534L53.84 36.208c-2.356-1.111-4.855-1.11-7.211 0L31.986 21.566v-2.528c10.828-7.97 25.668-7.964 36.493-.002zM30.97 23.378l13.917 13.917a8.624 8.624 0 0 0-1.636 1.765H26.785l-4.064-1.11a28.227 28.227 0 0 1 8.249-14.572zm-8.32 18.198 3-.75v6.137l-3-.75zm.062 8.265 4.073-1.112h12.394l-14.651 6.66a28.052 28.052 0 0 1-1.816-5.548zm20.732-.855c.21.28.435.548.677.8L27.497 61.317a.997.997 0 0 0-.43.821v2.59h-4.999v-6.024zM25.647 69.779h-2.16l-1.027-3.051h4.215zm21.087-18.147a8.45 8.45 0 0 0 7 0v25.43h-7z" fill="#ffffff" opacity="1" data-original="#000000" class=""></path><circle cx="50.234" cy="22.009" r="2.126" fill="#ffffff" opacity="1" data-original="#000000" class=""></circle><circle cx="50.234" cy="28.344" r="2.126" fill="#ffffff" opacity="1" data-original="#000000" class=""></circle><circle cx="44.817" cy="29.314" r="2.126" fill="#ffffff" opacity="1" data-original="#000000" class=""></circle><circle cx="57.93" cy="23.179" r="2.126" fill="#ffffff" opacity="1" data-original="#000000" class=""></circle><circle cx="55.65" cy="29.314" r="2.126" fill="#ffffff" opacity="1" data-original="#000000" class=""></circle><circle cx="42.539" cy="23.179" r="2.126" fill="#ffffff" opacity="1" data-original="#000000" class=""></circle></g></svg>