<svg xmlns="http://www.w3.org/2000/svg" version="1.1" xmlns:xlink="http://www.w3.org/1999/xlink" width="512" height="512" x="0" y="0" viewBox="0 0 512 512" style="enable-background:new 0 0 512 512" xml:space="preserve" class=""><g><path d="M333 62.8C402.8 96.4 448 168 448 245.3 448 357.1 357.1 448 245.3 448S42.6 357.1 42.6 245.3c0-77.3 45.2-149 115.1-182.5 4.5-2.2 9.9-.9 13 2.9 3.1 3.9 3.1 9.4 0 13.3-14 17.5-21.4 38.1-21.4 59.6 0 25.2 9.8 49.1 27.6 67.2 4.1 4.1 4.1 10.8 0 15-17.8 18.1-27.6 42-27.6 67.2 0 49.3 37.4 90.1 85.3 95.4v-69.7l-27 27.1c-4.2 4.2-10.9 4.2-15.1 0s-4.2-10.9 0-15.1l27-27.1h-38.2c-5.9 0-10.7-4.8-10.7-10.7s4.8-10.7 10.7-10.7h38.2l-27-27c-4.2-4.2-4.2-10.9 0-15.1s10.9-4.2 15.1 0l27 27V53.3c0-5.9 4.8-10.7 10.7-10.7S256 47.4 256 53.3v208.9l27-27c4.2-4.2 10.9-4.2 15.1 0s4.2 10.9 0 15.1l-27 27h38.2c5.9 0 10.7 4.8 10.7 10.7s-4.8 10.7-10.7 10.7h-38.2l27 27.1c4.2 4.2 4.2 10.9 0 15.1s-10.9 4.2-15.1 0l-27-27.1v69.7c47.9-5.3 85.3-46.1 85.3-95.4 0-25.2-9.8-49.1-27.6-67.2-4.1-4.2-4.1-10.8 0-15 17.8-18.1 27.6-42 27.6-67.2 0-21.5-7.4-42.1-21.3-59.6-3.1-3.9-3.1-9.4 0-13.3 3-4 8.5-5.2 13-3zm93.7 182.5c0-57.1-26.1-109.1-69.9-142.9 3.9 11.6 5.9 23.8 5.9 36.3 0 27.5-9.5 53.7-26.9 74.7 17.5 21 26.9 47.2 26.9 74.7 0 64.7-52.6 117.3-117.3 117.3-32.4 0-61.7-13.2-82.9-34.4-21.3-21.3-34.5-50.7-34.5-83 0-27.5 9.5-53.6 26.9-74.7-17.4-21-26.9-47.2-26.9-74.7 0-12.5 2-24.6 5.9-36.3-43.8 34-69.9 86-69.9 143 0 100 81.3 181.3 181.3 181.3s181.4-81.3 181.4-181.3z" fill="#ffffff" opacity="1" data-original="#000000"></path></g></svg>