<svg xmlns="http://www.w3.org/2000/svg" version="1.1" xmlns:xlink="http://www.w3.org/1999/xlink" width="512" height="512" x="0" y="0" viewBox="0 0 100 100" style="enable-background:new 0 0 512 512" xml:space="preserve" class=""><g><path d="M67.873 71.878a1 1 0 0 0 1-1V23.58c0-10.408-8.468-18.875-18.875-18.875-10.408 0-18.875 8.467-18.875 18.875v47.298a1 1 0 0 0 1 1h1.929l3.107 4.794c.185.284.5.456.839.456h8.75v2.247h-1.65a1 1 0 0 0-.981.807l-1.379 6.991a8.364 8.364 0 0 0 0 .388l.529 2.676a1 1 0 0 0 .981.806H55.75a1 1 0 0 0 .981-.806l.529-2.678a3.587 3.587 0 0 0 0-.388l-1.381-6.989a1.001 1.001 0 0 0-.981-.807H53.25v-2.247H62a1 1 0 0 0 .839-.456l3.106-4.794zM33.462 20.211h7.77v2.869h-8.084c.029-.978.125-1.939.314-2.869zm-.339 7.227h33.75v.857h-33.75zm33.725-4.358h-2.699v-2.869h2.386c.188.93.283 1.891.313 2.869zM52.199 6.866c1.718.225 3.351.708 4.867 1.412h-4.867zm-4.401-.001-.001 1.412H42.93a16.743 16.743 0 0 1 4.868-1.412zm-6.713 2.412h7.211a.5.5 0 0 0 .5-.5l.001-2.012a13.75 13.75 0 0 1 2.401 0v2.011a.5.5 0 0 0 .5.5h7.211a16.916 16.916 0 0 1 7.369 9.934h-2.631a.5.5 0 0 0-.5.5v3.869a.5.5 0 0 0 .5.5h3.225v1.357h-33.75V24.08h8.609a.5.5 0 0 0 .5-.5v-3.869a.5.5 0 0 0-.5-.5h-8.015a16.924 16.924 0 0 1 7.369-9.934zm-7.962 21.018h33.75v39.583h-33.75zm20.051 44.833 1.054-3.25h4.424l-1.58 3.25zm-4.248 0-1.053-3.25h4.252l-1.054 3.25zm-6.002 0-1.579-3.25h4.426l1.053 3.25zm-6.488-3.25h2.687l1.579 3.25h-2.16zm8.634 17.164-.134-.68h10.127l-.134.68zm9.992-2.68H44.937l.983-4.987h8.157zm-6.314-6.987v-2.247h2.502v2.247zm12.708-4.247h-2.16l1.58-3.25h2.687z" fill="#ffffff" opacity="1" data-original="#000000"></path><path d="M44.396 20.211H55.6a.5.5 0 0 0 .49-.604l-1.701-8a.5.5 0 0 0-.489-.396h-7.801a.5.5 0 0 0-.489.396l-1.701 8a.5.5 0 0 0 .487.604zm2.106-8h6.991l1.489 7h-9.968z" fill="#ffffff" opacity="1" data-original="#000000"></path><circle cx="49.998" cy="15.711" r="2.65" fill="#ffffff" opacity="1" data-original="#000000"></circle><path d="M53.5 43.378h-7.002a.5.5 0 0 0-.5.5v14.983a.5.5 0 0 0 .5.5H53.5a.5.5 0 0 0 .5-.5V43.878a.5.5 0 0 0-.5-.5zM53 58.361h-6.002V44.378H53zM44.396 24.08H55.6a.5.5 0 0 0 .5-.5v-1.143a.5.5 0 0 0-.5-.5H44.396a.5.5 0 0 0-.5.5v1.143a.5.5 0 0 0 .5.5zm.5-1.142H55.1v.143H44.896zM59.494 23.58c1.066 0 1.934-.868 1.934-1.935s-.867-1.935-1.934-1.935-1.936.868-1.936 1.935.869 1.935 1.936 1.935zm0-2.869a.935.935 0 1 1-.003 1.87.935.935 0 0 1 .003-1.87zM38.721 37.494h22.555a.5.5 0 0 0 .5-.5v-.816a.5.5 0 0 0-.5-.5H38.721a.5.5 0 0 0-.5.5v.816c0 .277.223.5.5.5zM38.721 41.322h22.555a.5.5 0 0 0 .5-.5v-.816a.5.5 0 0 0-.5-.5H38.721a.5.5 0 0 0-.5.5v.816c0 .277.223.5.5.5zM38.721 33.667h22.555a.5.5 0 0 0 .5-.5v-.816a.5.5 0 0 0-.5-.5H38.721a.5.5 0 0 0-.5.5v.816a.5.5 0 0 0 .5.5zM49.998 60.868c-2.206 0-4 1.795-4 4.002 0 2.206 1.794 4 4 4a4.005 4.005 0 0 0 4.002-4 4.006 4.006 0 0 0-4.002-4.002zm0 7.002c-1.654 0-3-1.346-3-3a3.005 3.005 0 0 1 3-3.002A3.006 3.006 0 0 1 53 64.87c0 1.654-1.347 3-3.002 3zM39.748 68.87a.5.5 0 0 0 .5-.5v-6.576a.5.5 0 0 0-.5-.5h-5.152a.5.5 0 0 0-.5.5v6.576a.5.5 0 0 0 .5.5zm-4.652-6.576h4.152v5.576h-4.152zM37.172 59.361h2.576a.5.5 0 0 0 0-1h-2.576a.5.5 0 0 0 0 1zM37.172 57.09h2.576a.5.5 0 0 0 0-1h-2.576a.5.5 0 0 0 0 1zM37.172 54.818h2.576a.5.5 0 0 0 0-1h-2.576a.5.5 0 0 0 0 1zM37.172 52.547h2.576a.5.5 0 0 0 0-1h-2.576a.5.5 0 0 0 0 1zM37.172 50.275h2.576a.5.5 0 0 0 0-1h-2.576a.5.5 0 0 0 0 1zM83.325 91.069l-2.027-10.872a1 1 0 0 0-.983-.816h-1.381v-.904a.987.987 0 0 0 .85-.97V67.335a.987.987 0 0 0-.85-.97V51.057a.987.987 0 0 0 .85-.97V29.295a1 1 0 0 0-1-1h-8.166a1 1 0 0 0-1 1v48.212c0 .5.372.896.852.97v.904h-1.383c-.481 0-.895.344-.983.816L66.077 91.07c-.034.188.012.445.051.544l1.176 3.041a1 1 0 0 0 .933.64h12.93a1 1 0 0 0 .933-.64l1.164-3.013.001-.001c.052-.206.087-.469.06-.572zM71.617 66.337v-15.25h5.316v15.25zm0 2h6.166v8.17h-6.166zm6.166-38.042v18.792h-6.166V30.295zm-5.314 48.212h4.465v.874h-4.465zm-2.552 2.874h9.567l1.654 8.872H68.265zm-.995 11.914-.403-1.042h12.364l-.402 1.042zM16.735 91.642s0 .001 0 0l1.165 3.014a1 1 0 0 0 .933.64h12.93a1 1 0 0 0 .933-.64l1.176-3.041c.039-.099.085-.356.051-.544l-2.025-10.873a1 1 0 0 0-.983-.816H29.53v-.904a.987.987 0 0 0 .852-.97V29.295a1 1 0 0 0-1-1h-8.166a1 1 0 0 0-1 1v20.792c0 .499.371.895.85.97v15.309a.987.987 0 0 0-.85.97v10.172c0 .499.371.895.85.97v.904h-1.381a1 1 0 0 0-.983.816L16.675 91.07c-.028.102.007.365.06.572zm6.33-25.305v-15.25h5.316v15.25zm5.317 10.17h-6.166v-8.17h6.166zm0-46.212v18.792h-6.166V30.295zm-.852 49.086h-4.465v-.874h4.465zm4.204 10.872H18.861l1.654-8.872h9.567zm-12.215 3.042-.402-1.042H31.48l-.403 1.042z" fill="#ffffff" opacity="1" data-original="#000000"></path></g></svg>