<svg xmlns="http://www.w3.org/2000/svg" xmlns:xlink="http://www.w3.org/1999/xlink" width="240" zoomAndPan="magnify" viewBox="0 0 180 179.999997" height="240" preserveAspectRatio="xMidYMid meet" version="1.0"><path fill="#ff9800" d="M 131.25 116.25 L 131.25 63.75 C 114.953125 64.992188 99.664062 67.40625 86.25 72 L 86.25 108 C 99.582031 112.742188 114.9375 115.070312 131.25 116.25 Z M 131.25 116.25 " fill-opacity="1" fill-rule="nonzero"/><path fill="#ffc400" d="M 142.5 22.5 L 180 90 L 142.5 157.5 L 120 157.5 L 127.5 89.59375 L 120 22.5 Z M 142.5 22.5 " fill-opacity="1" fill-rule="nonzero"/><path fill="#b0bec5" d="M 108.75 33.75 L 63.75 26.25 L 108.75 18.75 L 161.25 18.75 L 172.5 26.25 L 161.25 33.75 Z M 108.75 33.75 " fill-opacity="1" fill-rule="nonzero"/><path fill="#b0bec5" d="M 108.75 161.25 L 63.75 153.75 L 108.75 146.25 L 161.25 146.25 L 172.5 153.75 L 161.25 161.25 Z M 108.75 161.25 " fill-opacity="1" fill-rule="nonzero"/><path fill="#ffc400" d="M 123.75 75 L 0 90 L 180 90 L 168.75 75 Z M 123.75 75 " fill-opacity="1" fill-rule="nonzero"/><path fill="#ffc400" d="M 123.75 105 L 0 90 L 180 90 L 168.75 105 Z M 123.75 105 " fill-opacity="1" fill-rule="nonzero"/><path fill="#ff9800" d="M 135 78.75 L 135 71.25 L 161.25 71.25 L 165 78.75 Z M 135 78.75 " fill-opacity="1" fill-rule="nonzero"/><path fill="#ff9800" d="M 135 108.75 L 135 101.25 L 165 101.25 L 161.25 108.75 Z M 135 108.75 " fill-opacity="1" fill-rule="nonzero"/><path fill="#ff9800" d="M 135 78.75 L 135 71.25 L 161.25 71.25 L 165 78.75 Z M 135 78.75 " fill-opacity="1" fill-rule="nonzero"/><path fill="#b0bec5" d="M 142.5 157.5 L 180 90 L 142.5 22.5 L 131.25 22.5 L 149.71875 77.234375 C 145.40625 79.867188 142.5 84.578125 142.5 90 C 142.5 95.421875 145.40625 100.132812 149.71875 102.765625 L 131.25 157.5 Z M 142.5 157.5 " fill-opacity="1" fill-rule="nonzero"/><path fill="#ffc400" d="M 135 18.75 L 135 33.75 L 120 33.75 L 120 18.75 Z M 135 18.75 " fill-opacity="1" fill-rule="nonzero"/><path fill="#ffc400" d="M 135 146.25 L 135 161.25 L 120 161.25 L 120 146.25 Z M 135 146.25 " fill-opacity="1" fill-rule="nonzero"/><path fill="#90a4ae" d="M 148.75 33.75 L 121.257812 33.75 L 122.097656 41.25 L 152.917969 41.25 Z M 148.75 33.75 " fill-opacity="1" fill-rule="nonzero"/><path fill="#ff9800" d="M 151.875 39.375 L 148.75 33.75 Z M 151.875 39.375 " fill-opacity="1" fill-rule="nonzero"/><path fill="#ff9800" d="M 135.046875 33.75 L 121.257812 33.75 L 122.097656 41.25 L 137.578125 41.25 Z M 135.046875 33.75 " fill-opacity="1" fill-rule="nonzero"/><path fill="#90a4ae" d="M 148.75 146.25 L 121.257812 146.25 L 122.097656 138.75 L 152.917969 138.75 Z M 148.75 146.25 " fill-opacity="1" fill-rule="nonzero"/><path fill="#ff9800" d="M 151.875 140.625 L 148.75 146.25 Z M 151.875 140.625 " fill-opacity="1" fill-rule="nonzero"/><path fill="#ff9800" d="M 135.046875 146.25 L 121.257812 146.25 L 122.097656 138.75 L 137.578125 138.75 Z M 135.046875 146.25 " fill-opacity="1" fill-rule="nonzero"/><path fill="#18ffff" d="M 120 18.75 L 108.75 18.75 L 63.75 26.25 L 108.75 33.75 L 120 33.75 Z M 120 18.75 " fill-opacity="1" fill-rule="nonzero"/><path fill="#18ffff" d="M 120 146.25 L 108.75 146.25 L 63.75 153.75 L 108.75 161.25 L 120 161.25 Z M 120 146.25 " fill-opacity="1" fill-rule="nonzero"/><path fill="#64b5f6" d="M 118.925781 97.5 C 115.378906 97.5 112.5 94.144531 112.5 90 C 112.5 85.855469 115.378906 82.5 118.925781 82.5 C 122.480469 82.5 135 85.855469 135 90 C 135 94.144531 122.480469 97.5 118.925781 97.5 Z M 118.925781 97.5 " fill-opacity="1" fill-rule="nonzero"/><path fill="#fafafa" d="M 97.5 97.5 C 97.007812 97.5 96.519531 97.453125 96.035156 97.355469 C 95.554688 97.261719 95.085938 97.117188 94.628906 96.929688 C 94.175781 96.742188 93.742188 96.507812 93.332031 96.234375 C 92.921875 95.960938 92.546875 95.652344 92.195312 95.304688 C 91.847656 94.953125 91.539062 94.578125 91.265625 94.167969 C 90.992188 93.757812 90.757812 93.324219 90.570312 92.871094 C 90.382812 92.414062 90.238281 91.945312 90.144531 91.464844 C 90.046875 90.980469 90 90.492188 90 90 C 90 89.507812 90.046875 89.019531 90.144531 88.535156 C 90.238281 88.054688 90.382812 87.585938 90.570312 87.128906 C 90.757812 86.675781 90.992188 86.242188 91.265625 85.832031 C 91.539062 85.421875 91.847656 85.042969 92.195312 84.695312 C 92.546875 84.347656 92.921875 84.039062 93.332031 83.765625 C 93.742188 83.492188 94.175781 83.257812 94.628906 83.070312 C 95.085938 82.882812 95.554688 82.738281 96.035156 82.644531 C 96.519531 82.546875 97.007812 82.5 97.5 82.5 C 97.992188 82.5 98.480469 82.546875 98.964844 82.644531 C 99.445312 82.738281 99.914062 82.882812 100.371094 83.070312 C 100.824219 83.257812 101.257812 83.492188 101.667969 83.765625 C 102.078125 84.039062 102.457031 84.347656 102.804688 84.695312 C 103.152344 85.042969 103.460938 85.421875 103.734375 85.832031 C 104.007812 86.242188 104.242188 86.675781 104.429688 87.128906 C 104.617188 87.585938 104.761719 88.054688 104.855469 88.535156 C 104.953125 89.019531 105 89.507812 105 90 C 105 90.492188 104.953125 90.980469 104.855469 91.464844 C 104.761719 91.945312 104.617188 92.414062 104.429688 92.871094 C 104.242188 93.324219 104.007812 93.757812 103.734375 94.167969 C 103.460938 94.578125 103.152344 94.953125 102.804688 95.304688 C 102.457031 95.652344 102.078125 95.960938 101.667969 96.234375 C 101.257812 96.507812 100.824219 96.742188 100.371094 96.929688 C 99.914062 97.117188 99.445312 97.261719 98.964844 97.355469 C 98.480469 97.453125 97.992188 97.5 97.5 97.5 Z M 97.5 97.5 " fill-opacity="1" fill-rule="nonzero"/><path fill="#90a4ae" d="M 149.71875 77.234375 C 148.996094 77.675781 148.328125 78.195312 147.691406 78.75 L 165 78.75 L 161.25 71.25 L 147.703125 71.25 Z M 149.71875 77.234375 " fill-opacity="1" fill-rule="nonzero"/><path fill="#90a4ae" d="M 149.71875 102.765625 L 147.703125 108.75 L 161.25 108.75 L 165 101.25 L 147.691406 101.25 C 148.328125 101.804688 148.996094 102.324219 149.71875 102.765625 Z M 149.71875 102.765625 " fill-opacity="1" fill-rule="nonzero"/></svg>