<svg xmlns="http://www.w3.org/2000/svg" version="1.1" xmlns:xlink="http://www.w3.org/1999/xlink" width="512" height="512" x="0" y="0" viewBox="0 0 300 300" style="enable-background:new 0 0 512 512" xml:space="preserve" class=""><g><circle cx="110" cy="56" r="4" fill="#2c8ed3" opacity="1" data-original="#000000" class=""></circle><path d="M57.516 70.484c.781.781 1.805 1.172 2.828 1.172s2.047-.391 2.828-1.172L66 67.656l2.828 2.828c.781.781 1.805 1.172 2.828 1.172s2.047-.391 2.828-1.172a4 4 0 0 0 0-5.656L71.656 62l2.828-2.828a4 4 0 1 0-5.656-5.656L66 56.344l-2.828-2.828a4 4 0 1 0-5.656 5.656L60.344 62l-2.828 2.828a3.997 3.997 0 0 0 0 5.656zM136.746 119.715a3.777 3.777 0 0 0-.555.178c-9.828 3.969-13.246 6.721-13.059 10.514.055 1.105.598 3.795 4.453 4.928 1.297.381 3.234.57 5.59.57 11.676 0 33.703-4.648 40.078-13.58 9.426-13.193 6.938-21.219 4.617-24.828-3.102-4.82-9.309-7.117-15.793-5.854-6.508 1.27-14.176 6.438-16.293 17.131-2.921 9.136-8.682 10.843-9.038 10.941zm16.742-8.768c.043-.146.082-.297.109-.449 1.309-6.928 6.027-10.227 10.012-11.002 3.254-.639 6.215.279 7.535 2.328 2.055 3.193.41 9.119-4.398 15.852-3.777 5.285-18.586 8.914-28.438 9.994l.68-.281c2.028-.604 10.582-3.858 14.5-16.442z" fill="#2c8ed3" opacity="1" data-original="#000000" class=""></path><circle cx="66" cy="160" r="4" fill="#2c8ed3" opacity="1" data-original="#000000" class=""></circle><circle cx="114" cy="132" r="4" fill="#2c8ed3" opacity="1" data-original="#000000" class=""></circle><circle cx="110" cy="184" r="4" fill="#2c8ed3" opacity="1" data-original="#000000" class=""></circle><circle cx="122" cy="168" r="4" fill="#2c8ed3" opacity="1" data-original="#000000" class=""></circle><circle cx="194" cy="240" r="4" fill="#2c8ed3" opacity="1" data-original="#000000" class=""></circle><circle cx="174" cy="220" r="4" fill="#2c8ed3" opacity="1" data-original="#000000" class=""></circle><circle cx="102" cy="100" r="4" fill="#2c8ed3" opacity="1" data-original="#000000" class=""></circle><path d="M262 78c0-23.158-18.84-42-42-42s-42 18.842-42 42c0 .675.069 1.333.102 2H52.461C44.488 80 38 86.486 38 94.461v155.078C38 257.514 44.488 264 52.461 264h155.078c7.973 0 14.461-6.486 14.461-14.461v-129.64c22.229-1.055 40-19.416 40-41.899zm-71.301 30.034c-12.922 31.642-31.935 33.661-53.906 35.909-18.578 1.9-39.633 4.055-57.992 25.656-8.398 11.199-16.707 17.346-24.027 17.775-4.438.261-7.464-1.642-8.773-2.687v-40.002c7.053-11.07 24.066-14.449 42.086-18.01 24.627-4.868 52.394-10.435 57.47-38.676h33.698a41.952 41.952 0 0 0 11.444 20.035zM163.095 256h-19.216c-2.538-3.426-8.922-14.422-5.918-35.434 1.207-8.463 1.352-15.588 1.469-21.314.281-13.732.387-18.871 12.062-23.541 20.797-8.373 40.539 4.311 54.961 13.562 2.798 1.796 5.24 3.314 7.547 4.641v16.958c-3.818-.328-13.643-7.51-19.75-11.989-12.73-9.338-24.738-18.16-33.566-14.953-3.629 1.32-6.102 4.396-7.352 9.143-12.696 27.208-1.02 47.557 9.763 62.927zM214 163.251c-2.776-2.363-6.27-4.662-10.375-6.013-3.32-1.383-7.332-3.637-7.559-6.533-.241-3.074 2.841-8.746 17.934-18.591zm0-40.608-.027.017c-12.496 7.668-26.727 17.855-25.879 28.668.434 5.566 4.625 10.039 12.742 13.402 6.832 2.255 11.583 8.04 13.164 10.183v9.683a562.15 562.15 0 0 1-3.227-2.056c-14.992-9.621-37.656-24.152-62.258-14.256-16.59 6.635-16.797 16.773-17.082 30.803-.117 5.797-.254 12.365-1.395 20.346-2.563 17.945 1.123 29.831 4.553 36.566h-17.626c-1.977-3.081-13.183-21.864-3.536-37.941 3.316-5.523 3.074-9.996 2.289-12.775-1.023-3.617-3.57-6.732-7.359-9.008-11.992-7.191-33.301-4.482-41.789 9.666-3.336 5.561-7.238 8.895-11.594 9.908-3.677.851-7.017-.117-8.977-.94V193.8a20.586 20.586 0 0 0 7.957 1.599c.336 0 .68-.008 1.027-.023 9.965-.469 20.129-7.525 30.062-20.783 16.125-18.963 34.648-20.857 52.562-22.691 22.043-2.255 44.786-4.682 59.572-38.689a41.715 41.715 0 0 0 16.819 6.31v3.12zM94 232.004c.004-4.336-.484-9.018-4.152-10.867-4.133-2.078-8.332 1.068-13.664 5.031-7.746 5.758-18.19 13.511-30.184 9.151V223.32c2.909.799 6.586 1.269 10.648.354 6.609-1.49 12.254-6.07 16.781-13.615 6.5-10.834 22.91-11.662 30.812-6.924 1.402.842 3.195 2.277 3.777 4.326.52 1.834.031 4.014-1.449 6.48-9.756 16.259-3.2 33.672 1.166 42.059h-7.918C97.91 252.209 94 243.09 94 232.004zM46 119.938c17.33-.46 38.68-18.208 45.51-31.938h45.911c-4.822 21.668-27.205 26.148-50.886 30.828-15.002 2.965-30.377 6.033-40.535 14.153zM52.461 88h29.795C74.931 98.796 58.31 111.58 46 111.965V94.461A6.468 6.468 0 0 1 52.461 88zM46 249.539v-5.858c14.779 3.859 27.191-5.322 34.957-11.093 1.559-1.156 3.52-2.615 4.906-3.447.078.656.137 1.58.137 2.857 0 10.083 2.727 18.614 5.007 24.002H52.461A6.468 6.468 0 0 1 46 249.539zM207.539 256h-34.628l-.103-.143c-10.84-15.074-24.336-33.836-12.078-59.719.113-.244.203-.498.27-.762.543-2.221 1.355-3.543 2.422-3.93 4.746-1.77 17.105 7.289 26.098 13.887 9.907 7.271 18.055 13.175 24.48 13.508v30.697a6.468 6.468 0 0 1-6.461 6.462zM220 112c-18.746 0-34-15.252-34-34s15.254-34 34-34 34 15.252 34 34-15.254 34-34 34z" fill="#2c8ed3" opacity="1" data-original="#000000" class=""></path><path d="m238.086 54.301-26.867 12.727a3.992 3.992 0 0 0-1.902 1.902L196.59 95.801a3.995 3.995 0 0 0 .785 4.541 3.99 3.99 0 0 0 4.539.787L228.781 88.4a3.992 3.992 0 0 0 1.902-1.902l12.727-26.869a3.995 3.995 0 0 0-.785-4.541 3.993 3.993 0 0 0-4.539-.787zM214.023 77.68l6.012 6.012-11.422 5.412zm11.77.456-6.216-6.216 11.81-5.594z" fill="#2c8ed3" opacity="1" data-original="#000000" class=""></path></g></svg>