<svg xmlns="http://www.w3.org/2000/svg" version="1.1" xmlns:xlink="http://www.w3.org/1999/xlink" width="512" height="512" x="0" y="0" viewBox="0 0 512 512" style="enable-background:new 0 0 512 512" xml:space="preserve" class=""><g><path d="M122.285 17.067c30.883 0 66.317 2.117 95 17.821a159.173 159.173 0 0 1 47.008 40.783c6.092 7.567 11.333 15.612 16.892 24.129a279.42 279.42 0 0 0 20 28.054 168.33 168.33 0 0 0 43.042 36.35L327.81 201.35a8.541 8.541 0 0 0 7.809 11.984l.267-.004 108.117-3.35a8.532 8.532 0 0 0 6.4-13.858l-68.683-85.879a8.537 8.537 0 0 0-14.475 1.88l-16.077 36.378a151.39 151.39 0 0 1-36.923-31.632 263.984 263.984 0 0 1-18.767-26.388 307.06 307.06 0 0 0-17.9-25.517 175.803 175.803 0 0 0-52.117-45.054C193.418 2.367 155.327 0 122.285 0c-4.713 0-8.533 3.82-8.533 8.533s3.82 8.534 8.533 8.534zm239.662 149.261a6.813 6.813 0 0 0 1.819-4.116l13.402-30.329 49.242 61.567-77.508 2.4 13.045-29.522z" fill="#2c8ed3" opacity="1" data-original="#000000" class=""></path><path d="M430.085 270.779c-71.117 0-122.217-19.65-156.225-60.071a265.328 265.328 0 0 1-18.692-26.292 309.015 309.015 0 0 0-17.95-25.563 174.65 174.65 0 0 0-52.133-45.125C152.86 96.125 113.027 93.867 81.918 93.867c-21.806.165-39.363 17.948-39.25 39.754a40.2 40.2 0 0 0 19.675 34.458 53.175 53.175 0 0 0 31.417 4.971l.108-.004v309.607c-.073 16.109 12.908 29.237 29.017 29.346h266.233c16.109-.109 29.09-13.237 29.017-29.346V350.195c4.104.06 8.108.089 11.95.089 21.756-.278 39.248-17.994 39.248-39.752s-17.492-39.475-39.248-39.753zm-307.2 224.154c-6.687-.099-12.033-5.592-11.95-12.279v-21.612a148.045 148.045 0 0 1 54.292 15.241 269.723 269.723 0 0 1 30.634 18.65h-72.976zm278.183-12.279c.083 6.688-5.263 12.181-11.95 12.279H227.983a162.734 162.734 0 0 1-11.298-6.654c-3.692-2.388-7.308-4.821-10.917-7.25a289.922 289.922 0 0 0-32.908-20.013 164.877 164.877 0 0 0-61.925-17.09v-59.684a148.593 148.593 0 0 1 54.275 15.199 279.667 279.667 0 0 1 31.2 19.042c3.642 2.45 7.283 4.896 11.008 7.313a263.085 263.085 0 0 0 107.083 36.937 691.104 691.104 0 0 0 86.567 6.441v13.48zm0-30.549a672.793 672.793 0 0 1-84.108-6.258 246.584 246.584 0 0 1-100.267-34.379c-3.642-2.358-7.2-4.75-10.758-7.146a298.098 298.098 0 0 0-33.084-20.142 165.473 165.473 0 0 0-61.916-17.053v-92.933a109.388 109.388 0 0 1 52.775 23.736 296.845 296.845 0 0 1 31.208 30.317c3.642 3.9 7.283 7.8 11.008 11.642a211.796 211.796 0 0 0 107.875 59.133 443.882 443.882 0 0 0 87.267 10.328v42.755zm0-59.832a425.922 425.922 0 0 1-83.408-9.878 195.26 195.26 0 0 1-99.483-54.396c-3.65-3.763-7.217-7.579-10.783-11.404a314.463 314.463 0 0 0-33.05-32.017 125.263 125.263 0 0 0-63.409-27.586v-83.358a99.383 99.383 0 0 1 51.942 30.819 346.023 346.023 0 0 1 31.358 39.567c3.625 5.063 7.258 10.121 10.975 15.104a205.11 205.11 0 0 0 108.067 77.004 357.101 357.101 0 0 0 87.792 13.562v42.583zm29.017-59.056a390.03 390.03 0 0 1-111.875-13.421 188.642 188.642 0 0 1-99.316-70.871c-3.658-4.9-7.225-9.875-10.792-14.85a363.11 363.11 0 0 0-32.958-41.479c-15.725-16.279-40.842-35.887-71.2-36.858l-1.358-.033c-.341-.025-.642-.004-.967-.004-2.883 0-5.817.15-8.767.308a39.502 39.502 0 0 1-21.825-2.621 23.057 23.057 0 0 1-11.292-19.767c-.124-12.384 9.799-22.533 22.183-22.688 29.075 0 66.15 2.021 94.983 17.771a158.09 158.09 0 0 1 47.033 40.858 294.292 294.292 0 0 1 16.942 24.179 282.982 282.982 0 0 0 19.925 27.954c37.45 44.513 92.817 66.15 169.283 66.15 12.33.277 22.182 10.352 22.182 22.685s-9.851 22.41-22.181 22.687z" fill="#2c8ed3" opacity="1" data-original="#000000" class=""></path></g></svg>