<svg xmlns="http://www.w3.org/2000/svg" version="1.1" xmlns:xlink="http://www.w3.org/1999/xlink" width="512" height="512" x="0" y="0" viewBox="0 0 100 100" style="enable-background:new 0 0 512 512" xml:space="preserve" class=""><g><path d="m88.825 47.071-9.918-1.065a.994.994 0 0 0-.72.205l-.454.353-43.015-2.506v-.182h1.457a.5.5 0 0 0 .5-.5v-6.25a.5.5 0 0 0-.5-.5h-1.457V19h.596v.313a.5.5 0 0 0 .5.5h2.875a.5.5 0 0 0 .5-.5v-1.406h17.445v1.072c0 .653 1 .653 1 0v-1.072h5.834c.663 0 .663-1 0-1h-5.834v-1.073c0-.652-1-.652-1 0v1.073H39.189V15.5a.5.5 0 0 0-.5-.5h-2.875a.5.5 0 0 0-.5.5v.313H23.801a.5.5 0 0 0-.5.5v.594h-1.188v-.594c0-.648-1-.648-1 0V18.5c0 .664 1 .664 1 0v-.594h1.188v.594c0 .123.049.231.123.318l-4.94 17.662c-.091.324-.012.672.208.926l.516.594h-7.927a.5.5 0 0 0-.5.5V42a.5.5 0 0 0 .5.5H17.827l-2.161 2.903a1.004 1.004 0 0 0-.198.597v7.999c0 .215.069.425.198.597l2.161 2.903H11.281a.5.5 0 0 0-.5.5v3.5a.5.5 0 0 0 .5.5h7.927l-.517.594a.999.999 0 0 0-.208.926l4.94 17.662a.493.493 0 0 0-.123.318v.594h-1.188v-.594c0-.646-1-.646-1 0v2.188c0 .648 1 .648 1 0v-.594H23.3v.594a.5.5 0 0 0 .5.5h11.514v.313a.5.5 0 0 0 .5.5h2.875a.5.5 0 0 0 .5-.5v-1.406h17.445v1.073c0 .638 1 .638 1 0v-1.073h5.834c.68 0 .68-1 0-1h-5.834v-1.072c0-.669-1-.669-1 0v1.072H39.189v-1.406a.5.5 0 0 0-.5-.5h-2.875a.5.5 0 0 0-.5.5v.313h-.596V63.374h1.457a.5.5 0 0 0 .5-.5v-6.25a.5.5 0 0 0-.5-.5h-1.457v-.182l43.015-2.506.454.352c.203.159.465.232.72.205l9.918-1.065a1 1 0 0 0 .894-.994v-3.868a1 1 0 0 0-.894-.995zm-63.774-4.196v-5.25h.809v5.25zm1.808-5.25h6.359v5.25h-6.359zm8.817 5.25h-1.457v-5.25h1.457zM36.314 16h1.875v2.813h-1.875V16.312zm-12.013.813h11.014V18H24.301zM20.555 36.5 25.449 19h7.27v17.625h-8.168a.5.5 0 0 0-.5.5V38h-2.176zM11.781 39h1.496v2.5h-1.496zm2.496 2.5V39h9.773v2.5zm23.442 9.881a1.383 1.383 0 1 1 0-2.764 1.383 1.383 0 0 1 0 2.764zM35.336 50c0 1.05.688 1.934 1.635 2.249H17.469V47.75h19.5A2.377 2.377 0 0 0 35.336 50zm-23.555 8.499h1.496v2.5h-1.496zm2.496 2.5v-2.5h9.773v2.5zm18.942-3.875v5.25H26.86v-5.25zm-7.36 5.25h-.809v-5.25h.809zm10.455 18.813h1.875V84h-1.875zm-1 2H24.301v-1.188h11.014v1.188zm-9.865-2.188-4.895-17.5 1.289-1.5h2.207v.875a.5.5 0 0 0 .5.5h8.168v17.625zm10.227-18.625h-1.457v-5.25h1.457zm-2.015-8.373a1 1 0 0 0-.942.998v1.125h-8.168a.5.5 0 0 0-.5.5v.875h-3.707l-2.875-3.831v-.419h20.25a.5.5 0 0 0 .5-.5v-.423A2.383 2.383 0 0 0 40.1 50a2.386 2.386 0 0 0-1.881-2.328v-.422a.5.5 0 0 0-.5-.5h-20.25v-.418l2.859-3.832h3.723v.875a.5.5 0 0 0 .5.5h8.168V45c0 .53.413.967.942.999 0 0 44.366 2.577 44.384 2.577l.617.732v1.385l-.617.732c-.019 0-44.384 2.576-44.384 2.576zm54.058-2.966-8.623.927-.119-.093.567-.672a.5.5 0 0 0 .118-.322v-1.75a.5.5 0 0 0-.118-.322l-.567-.673.119-.092 8.623.926z" fill="#ffffff" opacity="1" data-original="#000000"></path><path d="M56.501 47.846 44.22 46.752a.487.487 0 0 0-.291.063l-2.041 1.156a.5.5 0 0 0-.253.435v3.188c0 .18.097.347.254.436l2.041 1.155c.075.042.16.064.246.064l.044-.002 12.281-1.093a.5.5 0 0 0 .456-.498v-3.313a.5.5 0 0 0-.456-.497zm-.544 3.353-11.67 1.038-1.652-.936v-2.604l1.652-.936 11.67 1.04z" fill="#ffffff" opacity="1" data-original="#000000"></path><circle cx="37.719" cy="50" r=".599" fill="#ffffff" opacity="1" data-original="#000000"></circle></g></svg>